
<svg xmlns="http://www.w3.org/2000/svg" xmlns:xlink="http://www.w3.org/1999/xlink" xmlns:svgjs="http://svgjs.com/svgjs" version="1.1" width="32" height="12" x="0" y="0" viewBox="0 0 1600 1600" style="enable-background:new 0 0 512 512" xml:space="preserve" class=""><g><g xmlns="http://www.w3.org/2000/svg"><g><path d="m521 1003.3c-69.2 0-125.5-56.3-125.5-125.5s56.3-125.5 125.5-125.5 125.5 56.3 125.5 125.5-56.3 125.5-125.5 125.5zm0-203c-42.7 0-77.5 34.8-77.5 77.5s34.8 77.5 77.5 77.5 77.5-34.8 77.5-77.5-34.8-77.5-77.5-77.5z" fill="#ffffff" data-original="#000000" class=""/></g><g><path d="m1079 1003.3c-69.2 0-125.5-56.3-125.5-125.5s56.3-125.5 125.5-125.5 125.5 56.3 125.5 125.5-56.3 125.5-125.5 125.5zm0-203c-42.7 0-77.5 34.8-77.5 77.5s34.8 77.5 77.5 77.5 77.5-34.8 77.5-77.5-34.7-77.5-77.5-77.5z" fill="#ffffff" data-original="#000000" class=""/></g><g><path d="m622.5 901.8c-6.1 0-12.3-2.3-17-7-9.4-9.4-9.4-24.6 0-33.9l257-257c9.4-9.4 24.6-9.4 33.9 0s9.4 24.6 0 33.9l-257 257c-4.6 4.6-10.8 7-16.9 7z" fill="#ffffff" data-original="#000000" class=""/></g><g><path d="m419.5 901.8h-363.5c-13.3 0-24-10.8-24-24s10.8-24 24-24h363.5c13.3 0 24 10.8 24 24s-10.8 24-24 24z" fill="#ffffff" data-original="#000000" class=""/></g><g><path d="m1544 901.8h-363.5c-13.3 0-24-10.8-24-24s10.8-24 24-24h363.5c13.3 0 24 10.8 24 24s-10.7 24-24 24z" fill="#ffffff" data-original="#000000" class=""/></g></g></g></svg>
